<?xml version="1.0" standalone="no"?>
<!DOCTYPE svg PUBLIC "-//W3C//DTD SVG 20010904//EN"
 "http://www.w3.org/TR/2001/REC-SVG-20010904/DTD/svg10.dtd">
<svg version="1.0" xmlns="http://www.w3.org/2000/svg"
 width="450.000000pt" height="300.000000pt" viewBox="0 0 450.000000 300.000000"
 preserveAspectRatio="xMidYMid meet">
<metadata>
Created by potrace 1.10, written by Peter Selinger 2001-2011
</metadata>
<g transform="translate(0.000000,300.000000) scale(0.050000,-0.050000)"
fill="#000000" stroke="none">
<path d="M3393 5702 c-42 -22 -103 -45 -135 -52 -88 -20 -117 -59 -104 -140 7
-45 3 -70 -11 -70 -13 0 -23 23 -23 50 0 55 -34 68 -53 19 -7 -18 -26 -26 -48
-19 -24 8 -44 -2 -58 -29 -13 -23 -34 -41 -48 -41 -14 0 -39 -29 -55 -65 -16
-36 -39 -63 -52 -60 -51 9 -147 -140 -106 -165 37 -23 21 -91 -25 -108 -25
-10 -66 -41 -93 -69 l-47 -51 48 -12 c68 -17 114 -90 57 -90 -47 0 -53 -44
-10 -80 19 -16 49 -19 85 -9 30 8 71 13 90 11 43 -6 46 44 4 79 -17 14 -26 37
-21 52 6 14 3 30 -6 36 -9 5 -12 33 -7 60 5 28 19 45 30 38 12 -7 15 -4 8 8
-7 11 1 47 17 78 16 31 30 79 30 105 0 27 5 43 12 37 6 -7 39 14 73 47 63 60
71 63 155 62 33 -1 38 2 15 9 -43 12 -45 34 -5 67 26 22 29 20 19 -12 -11 -35
-10 -36 11 -3 12 20 31 31 41 24 11 -6 19 3 19 20 0 17 14 31 30 31 17 0 30 8
30 19 0 33 82 45 141 20 33 -13 59 -32 59 -41 0 -39 4 -49 32 -80 15 -17 61
-33 101 -34 40 -2 88 -8 108 -14 43 -14 72 25 42 55 -15 15 -30 14 -51 -3 -23
-19 -32 -18 -45 5 -10 16 -39 32 -67 36 -84 12 -67 86 20 90 39 2 81 4 95 5
14 1 25 16 25 33 0 50 -54 91 -112 85 -30 -3 -58 5 -63 19 -4 14 6 25 23 25
18 0 32 9 32 20 0 11 -11 20 -25 20 -14 0 -43 5 -65 11 -22 6 -75 -7 -117 -29z"/>
<path d="M2475 5612 c-19 -14 -35 -37 -35 -49 0 -13 -27 -23 -60 -23 -36 0
-60 -10 -60 -26 0 -15 -34 -35 -75 -45 -84 -22 -134 -94 -104 -151 27 -51 162
-68 236 -29 103 53 125 4 25 -55 -100 -59 -210 -45 -291 36 l-70 70 -21 -80
c-26 -98 -1 -213 45 -205 23 4 30 -10 28 -57 -4 -87 37 -95 85 -17 30 50 35
76 20 115 -32 83 12 95 58 16 l41 -70 -42 -54 c-39 -49 -40 -55 -9 -78 37 -26
49 -121 13 -99 -12 7 -39 -3 -59 -21 -30 -27 -58 -32 -129 -21 -99 15 -121 -9
-41 -45 28 -13 50 -40 50 -62 0 -22 14 -53 31 -71 35 -34 149 -43 149 -11 0
11 26 14 60 7 52 -10 60 -6 60 31 0 57 -46 72 -123 41 -55 -23 -65 -22 -89 10
-43 60 -12 77 113 62 108 -12 115 -10 106 26 -6 21 4 61 22 89 18 27 30 81 28
119 -4 56 8 83 62 137 37 37 79 96 94 132 15 36 50 80 78 99 34 22 44 38 28
48 -15 9 2 33 49 69 86 65 87 72 22 142 -46 50 -52 51 -96 23 -39 -26 -51 -27
-84 -3 -46 34 -70 34 -115 0z"/>
<path d="M3860 5390 c-13 -16 -31 -25 -40 -20 -40 25 -62 -48 -30 -98 19 -28
28 -58 22 -68 -6 -10 12 -14 39 -9 33 7 60 32 78 75 15 36 37 72 50 79 17 11
17 22 0 43 -31 37 -88 36 -119 -2z"/>
<path d="M5583 5354 c-50 -54 -55 -85 -13 -101 16 -6 24 -25 18 -41 -6 -16 5
-38 27 -49 36 -20 39 -13 39 108 1 142 -6 151 -71 83z"/>
<path d="M5760 5303 c0 -50 21 -67 53 -40 40 33 33 77 -13 77 -25 0 -40 -13
-40 -37z"/>
<path d="M6491 5295 c-25 -81 -29 -135 -11 -135 11 0 20 -21 20 -48 0 -61 86
-123 117 -85 15 18 11 42 -15 86 -22 35 -31 72 -22 89 21 39 -12 118 -50 118
-17 0 -35 -11 -39 -25z"/>
<path d="M3670 5195 c77 -171 84 -247 10 -115 -44 78 -58 94 -50 53 7 -36 4
-52 -9 -44 -12 8 -16 1 -9 -18 7 -17 22 -25 33 -18 13 8 15 3 6 -12 -9 -14 2
-49 27 -83 29 -38 35 -58 18 -59 -16 0 -10 -12 13 -30 53 -40 22 -37 -41 4
-28 18 -72 75 -98 125 -54 103 -68 77 -17 -31 18 -38 65 -91 105 -118 79 -54
71 -65 -17 -20 -31 16 -75 59 -98 95 -23 36 -42 54 -43 39 0 -15 18 -52 40
-83 30 -42 34 -59 15 -67 -18 -8 -16 -18 10 -39 39 -32 49 -142 12 -130 -13 5
-35 48 -50 97 -32 108 -32 104 -7 89 34 -21 22 22 -17 57 -86 78 -97 47 -33
-90 27 -59 49 -120 49 -137 0 -16 -30 34 -67 112 -76 163 -127 215 -81 84 17
-47 44 -106 60 -131 17 -25 21 -45 10 -45 -11 0 -34 25 -52 55 -17 30 -26 38
-20 18 9 -30 4 -34 -24 -23 -19 8 -51 19 -70 25 -40 11 -49 48 -10 40 16 -3
26 23 29 75 3 63 0 70 -11 30 l-15 -50 -16 60 c-14 54 -17 56 -36 22 -20 -36
-23 -36 -61 10 -30 37 -36 40 -26 10 10 -33 8 -34 -22 -10 -31 26 -31 24 -9
-18 13 -25 32 -40 42 -34 9 6 24 0 32 -13 9 -15 5 -18 -12 -7 -17 10 -22 6
-15 -12 5 -15 19 -26 31 -24 11 3 25 -8 31 -25 7 -16 4 -29 -6 -29 -44 0 -117
40 -128 70 -8 21 -5 27 10 18 13 -8 19 -3 13 14 -5 15 -18 28 -28 28 -10 0
-29 8 -43 16 -19 13 -20 5 -5 -35 20 -54 4 -67 -36 -27 -13 13 -24 15 -24 4 0
-11 11 -31 24 -44 19 -19 13 -24 -25 -25 l-49 -2 50 -22 c49 -23 48 -23 -25
-30 -58 -6 -75 -16 -75 -46 0 -48 53 -51 153 -9 64 27 69 27 47 0 -14 -16 -60
-40 -103 -53 -49 -15 -69 -29 -54 -39 33 -20 117 15 182 77 30 29 55 42 55 30
0 -34 -97 -141 -141 -155 -53 -17 -49 -42 7 -41 69 1 144 59 182 140 19 39 48
71 65 71 50 0 287 -123 276 -142 -30 -48 -201 -124 -292 -131 -123 -9 -177
-36 -177 -88 0 -29 -14 -40 -55 -41 l-55 -2 50 -16 c47 -15 45 -16 -20 -21
-69 -5 -68 -5 20 -20 78 -13 71 -15 -53 -12 -79 2 -140 -3 -134 -11 5 -9 66
-16 135 -16 87 0 125 -8 125 -25 0 -36 -223 -13 -313 32 l-70 35 56 -51 c47
-43 76 -51 180 -52 104 -1 116 -5 74 -22 -72 -28 -204 -3 -281 54 -37 27 -76
49 -88 49 -11 1 -65 42 -119 93 l-98 92 -34 -45 c-29 -38 -36 -40 -46 -13 -8
21 2 40 27 53 58 31 48 58 -21 56 -66 -2 -95 -57 -70 -135 9 -29 4 -41 -19
-41 -36 0 -41 70 -11 149 25 67 -5 66 -59 -2 -49 -62 -52 -113 -11 -147 17
-14 30 -38 30 -55 0 -20 13 -26 40 -19 22 6 45 2 52 -9 6 -10 29 -13 51 -6 48
15 117 -41 117 -94 0 -23 14 -37 39 -37 21 0 46 -11 55 -25 24 -37 85 -37 71
0 -6 17 4 38 22 49 19 10 29 27 22 37 -16 27 6 23 131 -21 l110 -39 -138 0
c-76 -1 -133 -6 -127 -13 7 -7 68 -12 135 -12 142 0 144 -11 7 -36 l-97 -18
116 6 117 6 -60 -60 c-56 -57 -64 -59 -123 -34 -79 33 -226 29 -353 -10 -53
-16 -99 -30 -101 -30 -1 0 -7 16 -12 35 -6 25 -17 14 -42 -42 -37 -82 -28
-123 13 -66 35 48 243 -53 217 -105 -40 -78 -19 -453 22 -402 21 26 44 73 50
103 6 31 18 52 27 46 9 -5 13 8 9 30 -5 25 6 43 31 51 37 12 55 50 24 50 -23
0 -125 99 -125 120 0 25 68 1 304 -109 81 -38 115 -65 120 -97 4 -29 36 -59
96 -89 104 -53 108 -60 80 -134 l-21 -56 -121 133 c-153 167 -133 171 -386
-88 l-214 -220 64 -80 c36 -44 74 -80 85 -80 12 0 -8 30 -43 66 -35 36 -64 75
-64 86 0 28 245 293 343 370 l82 66 63 -69 c257 -285 313 -342 282 -287 -34
60 -34 66 7 175 23 61 36 127 29 145 -13 36 -219 135 -246 118 -22 -14 -80 9
-80 32 0 33 53 18 261 -73 229 -99 379 -182 379 -207 0 -9 56 -27 125 -41 69
-13 161 -32 205 -43 151 -36 277 -54 303 -44 41 16 32 82 -13 96 -46 15 -46
16 -10 110 26 68 33 61 38 -38 2 -50 91 -93 147 -73 35 13 31 51 -4 51 -72 0
-115 180 -59 242 100 111 -91 123 -281 19 l-151 -84 0 52 c0 63 -49 186 -94
235 -38 42 -20 73 21 38 31 -25 62 -97 82 -189 7 -32 18 -53 23 -47 21 20 -18
157 -65 230 l-49 74 61 -65 c87 -94 76 -42 -13 60 l-74 85 91 -86 90 -86 0 62
c0 34 15 76 33 94 34 35 39 26 61 -114 4 -27 9 1 10 63 3 124 45 194 170 281
l63 45 -56 -75 c-56 -74 -98 -162 -122 -254 -7 -27 13 5 45 72 32 68 69 129
82 137 13 9 6 -20 -15 -62 -21 -42 -45 -99 -52 -127 l-14 -50 30 50 c30 49 31
48 34 -50 l3 -100 16 110 c17 111 74 272 90 255 5 -5 -4 -41 -21 -81 -16 -40
-29 -107 -29 -148 l2 -76 26 90 c14 50 36 122 48 160 l22 70 -11 -85 c-16
-118 6 -203 51 -200 32 3 33 9 8 68 -15 36 -27 100 -26 141 l0 76 37 -107 c20
-59 53 -122 73 -140 33 -31 33 -31 2 16 -41 61 -41 74 -4 74 16 0 25 -7 19
-16 -6 -9 0 -17 12 -17 12 0 17 -9 10 -20 -7 -12 -6 -20 4 -18 87 15 85 -31
-7 -149 -56 -72 -73 -111 -71 -167 4 -98 18 -105 73 -35 l48 59 22 -58 c19
-50 17 -61 -18 -86 -23 -15 -41 -45 -41 -66 0 -20 -26 -56 -58 -78 -83 -60
-100 -132 -21 -92 31 17 113 31 183 31 118 2 341 80 331 117 -2 7 23 51 55
100 61 91 74 155 40 196 -11 14 -32 38 -46 55 -23 28 -17 39 19 34 7 -1 8 18
1 43 -11 42 -8 42 61 -11 75 -57 135 -72 135 -33 0 13 21 19 49 13 28 -5 46
-4 42 3 -4 7 18 28 51 47 32 18 58 25 58 14 0 -10 18 -1 40 21 37 37 66 49
105 42 8 -1 15 12 15 28 0 17 9 30 19 30 11 0 51 28 90 62 47 41 71 52 71 33
0 -38 71 -101 102 -91 16 5 13 18 -9 40 -36 37 -44 65 -13 46 38 -24 20 23
-25 62 -107 94 -113 96 -109 35 4 -53 -2 -57 -76 -63 -55 -5 -99 -25 -140 -63
-33 -31 -87 -63 -120 -69 -33 -7 -89 -40 -124 -73 -82 -76 -88 -75 -137 26
-42 86 -109 127 -109 65 0 -24 -11 -29 -40 -20 -91 29 -144 29 -199 0 -74 -38
-88 -38 -74 0 7 18 0 30 -16 30 -16 0 -34 -18 -41 -40 -19 -59 -43 -49 -109
45 -105 152 -147 199 -227 257 -64 46 -73 60 -46 70 20 7 52 -3 78 -24 44 -37
44 -37 -1 14 -25 28 -40 57 -32 64 15 15 125 -126 185 -237 23 -43 42 -66 42
-50 0 21 7 19 26 -7 16 -22 42 -32 65 -26 35 8 34 10 -5 12 -25 1 -49 19 -56
42 -7 22 -22 35 -34 28 -13 -8 -16 4 -8 34 6 27 6 36 0 21 -8 -17 -33 8 -70
70 -32 53 -81 129 -111 167 -36 48 -20 37 50 -34 113 -113 117 -112 73 14 -44
124 -40 131 75 158 58 13 157 36 221 51 l116 28 22 -54 c11 -29 41 -132 67
-229 l45 -176 -52 -20 c-29 -11 -104 -35 -168 -52 -64 -18 -112 -37 -106 -42
5 -5 82 11 171 36 138 39 165 42 180 18 24 -38 24 -58 -2 -58 -12 0 -16 -9 -9
-20 7 -11 29 -20 49 -20 20 0 47 -13 61 -30 28 -33 91 -40 109 -12 22 37 -70
159 -129 172 -104 23 -190 314 -87 294 37 -7 49 -3 39 13 -8 13 -36 23 -62 23
-39 0 -53 16 -73 82 -30 100 -51 110 -172 78 -95 -25 -121 -30 -235 -50 -60
-10 -60 -10 4 10 68 22 93 48 97 104 2 27 -4 30 -24 13 -15 -12 -22 -29 -16
-38 5 -9 -1 -23 -14 -31 -15 -9 -18 -5 -7 12 12 20 7 23 -18 13 -20 -7 -46
-14 -59 -14 -12 -1 -5 -10 17 -19 26 -11 4 -13 -60 -6 -117 14 -143 26 -55 26
70 0 125 17 125 39 0 19 -162 10 -290 -15 -114 -22 -149 -13 -96 27 29 22 30
28 6 29 -27 1 -27 3 0 20 22 14 6 20 -60 21 -89 3 -89 3 -26 21 99 29 95 53
-5 30 l-88 -21 54 -60 c150 -168 233 -248 248 -239 9 6 12 -2 6 -18 -6 -15 4
-40 21 -54 29 -24 19 -40 -84 -146 -66 -68 -99 -114 -76 -106 30 11 34 9 18
-8 -13 -13 -40 -26 -60 -29 -21 -3 -36 -16 -33 -29 3 -12 -6 -20 -20 -17 -14
3 -23 -6 -20 -20 3 -14 -6 -23 -20 -20 -14 3 -22 -10 -19 -30 3 -19 -5 -35
-17 -35 -13 0 -18 -13 -12 -30 7 -16 4 -30 -5 -30 -16 0 -48 73 -45 102 1 7
-22 34 -51 60 -29 27 -45 35 -36 20 13 -22 6 -26 -29 -17 -43 12 -44 9 -38
-131 l7 -144 -100 -10 c-83 -9 -92 -13 -53 -27 36 -13 44 -27 35 -63 -7 -26
-3 -50 9 -54 11 -3 22 -48 25 -100 8 -168 84 -181 334 -55 279 140 327 120
180 -75 -118 -156 -118 -156 -38 -197 34 -18 57 -36 52 -41 -15 -16 -496 91
-614 137 -159 61 -1140 489 -1155 503 -43 43 70 31 210 -23 24 -9 29 -2 20 32
-14 52 43 59 145 16 63 -26 66 -25 143 55 l80 82 -62 -89 -62 -89 45 -25 c59
-33 77 -33 65 -2 -5 14 22 69 61 124 77 107 95 96 28 -18 -23 -39 -34 -71 -23
-71 10 0 30 25 44 55 15 30 30 44 35 31 5 -13 -2 -44 -15 -68 -20 -37 -19 -42
7 -32 19 7 34 -3 40 -26 7 -26 31 -39 83 -44 66 -5 71 -9 47 -42 -26 -34 -32
-33 -143 17 -63 29 -120 49 -125 44 -4 -5 57 -38 137 -74 205 -91 203 -91 187
-65 -22 36 43 140 93 151 25 5 -22 8 -105 6 l-150 -3 -33 160 c-47 226 -48
424 -2 437 80 23 345 37 345 18 0 -24 -114 -44 -248 -45 l-98 0 14 -185 c8
-102 20 -224 26 -273 l12 -87 162 12 c265 21 336 36 264 56 -32 8 -74 7 -93
-4 -19 -10 -98 -24 -175 -31 l-139 -13 -10 87 c-12 106 25 179 82 164 34 -8
76 -126 44 -122 -58 6 -87 -6 -66 -27 18 -18 36 -18 77 0 29 13 69 19 89 13
50 -16 66 20 26 60 -31 31 -30 33 15 26 30 -4 46 -18 42 -36 -6 -24 -2 -25 19
-5 14 14 42 25 63 25 27 0 35 10 26 32 -7 17 -12 34 -12 38 0 3 -18 2 -40 -4
-31 -8 -40 -1 -40 32 0 23 10 42 22 42 13 0 18 17 13 38 -6 21 -3 49 5 62 19
31 60 9 60 -32 0 -17 9 -25 19 -18 11 6 31 -7 45 -29 14 -23 34 -41 43 -41 10
0 -46 68 -124 150 -175 183 -176 156 20 337 l163 150 -4 175 c-3 128 -15 195
-44 251 -40 78 -72 105 -50 42 12 -33 11 -33 -15 0 -50 64 -51 36 -3 -70z
m124 -1140 c50 -55 87 -123 84 -159 -1 -14 -14 3 -29 38 -16 36 -51 80 -79 98
-27 18 -50 41 -50 50 0 31 32 20 74 -27z m-742 -20 c-17 -25 -50 -79 -72 -120
-36 -66 -80 -100 -80 -62 0 17 162 227 175 227 5 0 -5 -20 -23 -45z m1845
-118 c28 -44 28 -44 -50 -93 -53 -33 -57 -172 -5 -156 85 26 106 23 114 -15 4
-21 -10 -49 -34 -66 -23 -16 -42 -42 -42 -59 0 -16 -22 -38 -50 -48 -29 -11
-50 -35 -50 -56 0 -50 -90 -91 -139 -64 -28 14 -40 12 -48 -10 -12 -32 -73
-19 -73 15 0 12 23 51 50 87 28 36 50 73 50 83 0 10 23 29 50 41 56 26 61 47
26 103 -21 33 -17 47 20 86 24 26 44 71 44 100 0 88 93 123 137 52z m-1116
-300 c40 -150 -11 -199 -55 -53 -33 110 -31 143 5 66 15 -33 28 -46 28 -30 1
17 -17 66 -40 110 -40 80 -40 80 0 33 22 -26 50 -83 62 -126z m-661 -147 c65
-33 77 -65 32 -82 -30 -11 -180 57 -202 92 -40 65 32 61 170 -10z"/>
<path d="M5429 5271 c-32 -23 -34 -33 -13 -55 26 -26 84 21 84 68 0 24 -28 19
-71 -13z"/>
<path d="M4072 5130 c-21 -38 -56 -85 -78 -105 -31 -27 -28 -17 12 44 29 43
49 83 44 88 -11 11 -77 -68 -155 -185 -30 -45 -64 -94 -77 -108 -27 -32 -10
-54 25 -32 14 8 45 18 70 20 88 10 221 82 233 128 l11 45 -53 -48 c-40 -35
-46 -37 -23 -7 32 40 79 140 79 166 0 7 -23 -20 -50 -61 -28 -41 -70 -85 -94
-97 -32 -17 -23 0 30 63 41 47 74 103 74 123 0 50 -5 46 -48 -34z"/>
<path d="M4711 5184 c-20 -19 17 -64 52 -64 22 0 34 -9 27 -20 -7 -11 3 -26
22 -33 37 -15 115 62 102 101 -7 20 -185 34 -203 16z"/>
<path d="M4640 5116 c0 -42 -1 -42 -27 -7 -47 65 -97 25 -82 -64 17 -93 39
-119 75 -88 42 34 54 7 41 -88 -17 -123 9 -180 44 -99 15 33 28 92 29 130 l3
70 32 -65 c18 -36 41 -65 51 -65 31 0 -3 122 -53 188 -25 34 -52 78 -59 97
-18 49 -54 44 -54 -9z"/>
<path d="M5799 5068 c-21 -50 -39 -102 -39 -115 0 -63 -101 -338 -143 -388
-137 -165 -140 -278 -8 -390 57 -48 77 -43 43 10 -55 86 -55 355 0 355 5 0 83
-24 172 -53 160 -51 162 -53 118 -85 -36 -28 -44 -52 -42 -133 2 -54 4 -142 4
-195 1 -54 8 -86 17 -73 8 13 25 18 37 10 25 -15 27 0 22 127 -2 55 7 94 23
104 21 14 21 17 1 18 -19 0 -20 10 -4 41 12 22 16 59 9 83 -12 36 -7 40 34 29
124 -34 197 -38 197 -11 0 16 5 51 11 78 9 38 4 35 -19 -15 -37 -79 -9 -80
-297 9 l-239 74 13 100 c7 55 42 187 77 294 l64 194 190 -58 c154 -47 340
-116 340 -126 0 -1 -18 -65 -40 -142 -46 -162 -48 -178 -12 -110 43 81 82 258
61 279 -20 19 -494 181 -530 181 -11 0 -38 -41 -60 -92z"/>
<path d="M5814 4925 c-95 -317 -97 -332 -63 -358 40 -29 286 -91 308 -77 10 5
21 2 24 -8 4 -10 29 -21 55 -25 49 -7 220 407 195 471 -7 18 -417 173 -455
172 -6 0 -35 -79 -64 -175z m330 41 c18 -17 43 -24 55 -17 12 8 21 -4 21 -29
0 -23 7 -38 15 -33 38 23 59 -40 37 -108 -22 -65 -186 -99 -207 -42 -3 7 -70
12 -150 10 -138 -2 -140 -2 -35 11 103 12 106 14 47 28 -118 30 -117 218 2
209 37 -3 64 -10 60 -16 -20 -33 25 -49 71 -26 35 19 40 26 16 27 -18 0 -40
10 -47 22 -19 31 71 2 115 -36z m-2 -328 c-22 -21 -54 -38 -71 -38 -20 0 -31
-18 -31 -50 0 -27 -9 -50 -21 -50 -33 0 -47 62 -23 101 18 28 15 38 -12 49
-54 22 19 43 118 33 80 -7 80 -8 40 -45z m-242 18 c0 15 9 21 20 14 12 -7 15
-21 9 -31 -6 -11 0 -19 13 -19 14 0 19 -5 13 -12 -7 -6 -45 0 -85 15 -57 20
-65 28 -36 39 20 7 43 3 51 -10 10 -15 14 -14 15 4z"/>
<path d="M1769 5058 c-8 -12 -3 -30 11 -38 14 -9 20 -30 14 -48 -10 -24 -1
-32 34 -32 51 0 86 -52 46 -66 -13 -5 -18 -15 -10 -24 33 -35 80 10 67 65 -14
53 -14 54 28 16 40 -37 41 -36 41 5 0 54 -34 74 -71 43 -17 -14 -32 -21 -36
-17 -3 4 -21 33 -40 63 -36 59 -62 69 -84 33z"/>
<path d="M6662 5009 c-50 -85 -47 -96 25 -78 84 21 107 64 59 112 l-40 40 -44
-74z"/>
<path d="M1638 4990 c-2 -5 -4 -19 -5 -29 -2 -11 -19 -31 -39 -46 -39 -28 -28
-95 16 -95 25 0 90 114 90 158 0 21 -57 32 -62 12z"/>
<path d="M1412 4814 c-52 -50 -67 -78 -59 -110 15 -57 40 -56 71 5 14 27 35
52 46 55 10 3 20 15 22 26 6 53 10 58 27 31 23 -37 50 -14 34 28 -18 48 -64
37 -141 -35z"/>
<path d="M6670 4761 c-33 -32 -84 -63 -113 -68 -83 -15 -153 -71 -167 -133 -7
-32 -25 -68 -41 -81 -39 -32 -36 -54 6 -64 19 -4 54 11 78 34 80 76 106 92
172 105 63 13 64 14 15 28 -40 11 -34 14 36 16 80 2 84 -1 64 -39 -12 -22 -30
-35 -40 -29 -9 6 -23 2 -30 -10 -7 -11 2 -20 19 -20 17 0 31 -13 31 -28 0 -15
14 -33 30 -39 17 -7 30 -22 30 -34 0 -12 -9 -16 -20 -9 -11 7 -20 7 -20 1 0
-21 101 -51 181 -54 43 -2 72 -12 66 -22 -7 -11 7 -9 31 4 23 12 42 15 42 6 0
-9 29 -18 65 -19 87 -3 157 -26 144 -48 -6 -10 0 -18 15 -18 19 -1 18 -6 -4
-22 -25 -18 -23 -20 8 -10 20 7 48 4 62 -8 36 -30 210 -59 210 -35 0 10 12 15
28 9 15 -6 37 -1 50 12 30 30 160 19 196 -17 16 -16 42 -29 57 -29 16 0 29 -9
29 -20 0 -11 32 -20 70 -20 39 0 70 -9 70 -20 0 -11 14 -20 31 -20 17 0 27 -7
22 -15 -5 -8 4 -27 19 -41 23 -21 28 -21 29 0 0 16 12 10 30 -13 27 -37 33
-37 84 -9 78 44 123 28 121 -43 -1 -31 -10 -53 -19 -47 -9 6 -17 1 -17 -10 0
-38 -80 -67 -112 -41 -24 20 -27 19 -16 -10 13 -33 10 -33 -47 -4 -33 17 -64
27 -69 23 -4 -5 -26 -12 -47 -16 -96 -18 -148 -40 -138 -56 6 -10 -7 -18 -30
-18 -54 0 -63 -2 -117 -22 -30 -12 -42 -11 -34 2 7 11 -2 20 -19 20 -17 0 -31
-16 -31 -35 -1 -26 -5 -28 -17 -9 -13 21 -22 20 -42 -5 -14 -17 -34 -31 -43
-31 -58 0 -157 -155 -148 -230 4 -33 12 -99 18 -146 6 -47 5 -82 -3 -77 -8 5
-16 -13 -18 -41 -2 -27 -21 -62 -44 -78 -23 -16 -55 -43 -72 -60 -17 -17 -41
-24 -54 -16 -14 8 -18 5 -10 -7 14 -23 -41 -51 -67 -35 -10 6 -23 2 -29 -9 -7
-10 -23 -17 -37 -13 -13 3 -17 2 -9 -3 26 -15 -6 -45 -47 -45 -22 0 -35 -9
-28 -20 7 -11 -4 -21 -24 -22 -21 -1 -26 -5 -11 -11 14 -6 19 -21 11 -33 -8
-13 -16 -65 -18 -116 -4 -101 -39 -186 -69 -167 -10 6 -19 -3 -19 -21 0 -18
-9 -27 -20 -20 -22 14 -125 -58 -108 -75 18 -18 -98 -97 -127 -86 -17 7 -22 2
-13 -12 10 -17 -7 -20 -58 -11 l-73 11 52 -48 c28 -26 77 -59 109 -73 32 -14
58 -37 58 -50 0 -38 34 -49 110 -35 l71 14 -51 46 c-77 72 -18 206 92 208 97
2 262 220 188 248 -34 13 -40 84 -9 104 14 8 8 23 -15 40 -58 43 8 98 94 79
59 -13 63 -19 52 -78 -15 -80 -2 -96 60 -67 52 23 61 54 26 89 -47 47 -12 134
59 148 95 19 144 77 172 201 27 120 74 144 92 47 l11 -60 15 76 c15 75 -46
203 -75 157 -26 -41 -92 1 -92 58 0 98 223 244 263 172 29 -50 72 -40 151 37
40 39 88 70 108 70 20 0 41 9 48 20 15 24 90 27 90 3 0 -23 -81 -128 -114
-149 -44 -27 -86 -128 -86 -208 -1 -42 -19 -115 -40 -163 -22 -48 -40 -92 -40
-98 0 -30 78 65 117 143 24 48 57 99 73 112 17 14 30 48 30 76 0 115 41 176
143 213 53 19 97 43 97 53 0 10 36 33 80 50 80 32 100 58 57 72 -27 9 39 96
74 96 12 0 42 -19 68 -43 35 -33 54 -38 79 -23 43 27 40 67 -7 94 -22 12 -52
33 -67 47 -141 129 -324 199 -324 124 0 -47 -70 -54 -87 -9 -7 18 -38 30 -79
30 -51 0 -74 12 -94 50 -20 38 -37 46 -74 37 -59 -15 -162 27 -170 68 -12 62
-139 86 -196 36 -50 -43 -229 -100 -259 -82 -9 6 -21 46 -28 90 -15 92 -66
133 -114 90 -26 -23 -49 -22 -156 7 -118 31 -129 31 -186 -1 -134 -78 -161
-13 -36 86 103 81 113 214 17 203 -39 -5 -56 4 -64 35 -14 57 -54 51 -124 -18z"/>
<path d="M3729 4679 c-242 -216 -224 -190 -170 -248 26 -27 55 -45 64 -39 9 6
17 -2 17 -16 0 -15 58 -84 128 -154 l128 -127 162 155 c193 185 191 168 40
330 l-122 130 112 -132 c136 -160 136 -136 -2 -280 l-113 -119 -86 84 c-58 57
-79 90 -63 99 18 12 18 22 -1 44 -19 23 -18 32 6 41 17 6 31 3 31 -8 0 -38 58
-18 72 26 22 64 22 275 1 275 -10 0 -29 14 -42 32 -20 27 -41 15 -162 -93z"/>
<path d="M1872 4748 c-7 -18 -25 -27 -42 -21 -49 19 -34 -14 32 -73 76 -66 72
-67 88 7 19 87 -49 163 -78 87z"/>
<path d="M1652 4710 c15 -61 -5 -64 -64 -9 l-44 42 -30 -60 c-34 -69 -27 -83
39 -83 32 0 42 -9 34 -30 -15 -39 12 -38 69 1 24 17 53 26 64 19 34 -21 99 9
87 41 -6 16 -21 29 -32 29 -11 0 -41 23 -67 50 -25 28 -51 50 -57 50 -7 0 -6
-22 1 -50z"/>
<path d="M7539 4648 c-11 -30 -13 -61 -5 -69 27 -24 163 3 175 35 15 41 -7 71
-42 57 -17 -6 -47 -2 -69 10 -32 17 -42 12 -59 -33z"/>
<path d="M2004 4656 c-34 -34 -30 -96 6 -96 20 0 30 20 30 60 0 67 -2 70 -36
36z"/>
<path d="M3265 4633 c-6 -11 0 -12 15 -3 17 11 21 8 12 -7 -8 -13 -24 -18 -34
-12 -11 7 -64 -29 -118 -79 -103 -96 -99 -108 25 -64 41 15 69 19 63 10 -16
-28 19 -21 66 12 24 17 56 28 70 25 14 -3 24 5 22 18 -3 13 8 34 25 48 37 31
37 52 0 52 -16 0 -26 -5 -22 -12 5 -7 -9 -12 -29 -12 -25 0 -32 7 -20 21 12
14 4 21 -23 21 -22 0 -45 -8 -52 -18z"/>
<path d="M4585 4575 c-168 -48 -164 -34 -84 -285 69 -217 43 -206 299 -121
152 51 156 66 82 310 -50 164 -54 165 -297 96z m251 -41 c36 -99 30 -124 -28
-127 -29 -2 -62 -13 -75 -26 -17 -18 -14 -20 14 -9 40 15 10 -63 -37 -96 -11
-8 16 -9 60 -2 44 7 86 21 93 31 7 12 17 12 24 -1 7 -11 -3 -26 -22 -33 -27
-10 -28 -17 -7 -30 18 -11 -3 -26 -66 -47 -88 -30 -92 -30 -92 6 0 64 -40 67
-91 7 -28 -33 -49 -45 -49 -29 0 16 34 61 77 101 65 62 73 79 57 117 -27 60
-74 56 -74 -6 0 -30 -11 -50 -28 -50 -16 0 -42 -5 -58 -11 -26 -10 -91 161
-69 183 6 6 301 82 336 87 6 0 22 -29 35 -65z"/>
<path d="M7770 4600 c-15 -25 40 -49 69 -30 12 7 16 21 10 31 -15 25 -63 24
-79 -1z"/>
<path d="M1300 4547 c0 -19 15 -50 33 -70 31 -34 31 -40 0 -74 -43 -48 -42
-77 6 -102 42 -23 49 -17 69 64 7 32 37 67 73 85 67 35 60 80 -10 62 -30 -8
-57 2 -81 28 -44 49 -90 52 -90 7z"/>
<path d="M1733 4486 c-7 -7 -14 -49 -15 -94 l-1 -82 -30 69 c-25 58 -34 64
-49 37 -15 -27 -28 -29 -77 -10 -67 25 -75 21 -81 -36 -12 -107 -2 -125 65
-122 86 3 94 -35 11 -50 l-66 -11 55 -23 c30 -13 55 -33 55 -45 0 -12 30 -4
67 19 37 23 70 38 75 35 88 -76 143 6 72 108 -19 26 -34 81 -34 122 0 72 -21
109 -47 83z"/>
<path d="M1867 4438 c11 -54 9 -59 -17 -38 -18 15 -30 17 -30 4 0 -12 24 -40
54 -64 75 -58 111 -16 78 90 -30 95 -103 102 -85 8z"/>
<path d="M2027 4475 c-34 -55 -42 -225 -13 -281 45 -89 26 -164 -20 -78 -20
36 -44 60 -55 53 -12 -7 -11 -26 2 -51 45 -83 -30 -103 -139 -36 -65 39 -101
30 -102 -27 0 -39 -141 -12 -201 39 -87 73 -251 96 -396 54 -75 -21 -114 -24
-132 -9 -14 11 -69 27 -122 34 -53 8 -120 26 -148 40 -28 15 -65 27 -82 27
-17 0 -41 10 -53 22 -65 65 -240 -141 -189 -220 53 -81 51 -125 -5 -111 -26 7
-53 3 -60 -8 -17 -27 66 -103 112 -103 48 0 46 -33 -4 -60 -66 -35 -51 -115
30 -163 83 -49 87 -74 19 -154 -32 -39 -42 -65 -28 -74 12 -7 24 -10 27 -6 70
100 147 216 163 245 12 22 46 40 80 43 32 2 78 11 102 18 31 10 55 3 84 -26
23 -23 68 -55 102 -72 34 -18 61 -40 61 -50 0 -20 113 -166 187 -241 63 -65
83 -128 75 -246 -5 -77 4 -108 46 -163 29 -38 52 -79 52 -91 0 -29 143 -275
198 -341 64 -77 51 -3 -17 100 -66 99 -62 140 6 60 24 -28 72 -86 108 -128 36
-43 65 -89 65 -103 0 -37 98 -108 149 -108 81 0 226 -62 307 -131 53 -46 98
-67 132 -65 54 5 74 56 22 56 -35 0 -177 134 -195 184 -11 28 -24 31 -77 16
-74 -22 -118 -3 -165 68 -68 104 -18 192 110 192 22 0 66 15 98 34 58 34 119
14 119 -41 0 -13 13 -47 28 -77 24 -46 24 -55 0 -64 -53 -20 -28 -44 114 -109
132 -60 218 -69 218 -22 0 20 -81 45 -113 35 -104 -32 -232 267 -145 339 56
48 80 96 66 134 -12 31 -79 43 -91 16 -4 -8 -37 -31 -73 -50 -36 -19 -60 -25
-54 -15 7 11 -1 20 -18 20 -19 0 -26 -11 -20 -29 9 -22 -3 -27 -45 -22 -31 3
-70 -4 -86 -16 -20 -16 -25 -16 -15 -1 8 15 -4 19 -38 12 -29 -5 -43 -15 -32
-22 12 -7 -14 -29 -57 -50 -43 -21 -73 -45 -67 -55 5 -9 -5 -11 -24 -3 -23 9
-30 5 -20 -10 9 -16 3 -19 -18 -11 -17 6 -27 17 -21 22 5 6 -18 25 -53 43 -34
18 -60 41 -58 52 2 11 -16 25 -40 30 -27 7 -47 29 -51 58 -4 26 -27 65 -50 85
-29 25 -34 37 -15 37 19 1 21 6 6 15 -26 18 -67 138 -66 195 1 75 -12 120 -47
159 -27 30 -29 42 -10 54 18 12 15 16 -11 17 -19 0 -41 14 -48 32 -6 18 -33
55 -59 83 -25 27 -41 59 -34 71 7 11 5 15 -5 9 -10 -6 -40 18 -67 54 -51 66
-73 82 -206 142 -41 18 -75 40 -75 47 0 35 -212 0 -240 -39 -17 -24 -100 18
-100 51 0 17 -11 49 -25 71 -20 33 -20 43 2 57 15 9 25 43 23 74 -8 114 -8
114 102 101 56 -6 113 -20 125 -30 13 -10 38 -15 57 -12 22 3 29 -5 22 -24 -6
-16 -3 -27 7 -25 9 3 33 -3 52 -11 21 -9 48 -5 65 9 25 21 30 18 31 -13 0 -35
1 -35 21 -2 11 20 28 31 38 25 9 -6 39 0 66 12 36 16 60 16 90 0 27 -15 46
-15 54 -2 7 11 21 20 32 20 11 0 15 -9 8 -20 -7 -11 -4 -20 7 -20 11 0 24 11
30 25 6 15 11 10 11 -11 1 -21 11 -31 24 -23 12 8 30 2 40 -13 14 -22 17 -23
18 -2 0 18 14 22 45 13 65 -21 202 -25 226 -7 24 18 67 14 105 -10 15 -9 31
-11 37 -5 6 6 32 2 58 -8 36 -13 52 -10 66 15 12 21 31 27 55 18 30 -12 32
-17 8 -32 -15 -9 -36 -12 -46 -6 -10 6 -13 -6 -7 -26 14 -45 -14 -98 -42 -81
-11 7 -16 -8 -11 -34 6 -26 -4 -57 -22 -72 -50 -41 -19 -174 65 -286 60 -80
132 -138 93 -75 -7 11 -3 20 9 20 22 0 28 -25 22 -87 -3 -31 2 -33 38 -14 23
13 39 14 36 4 -9 -34 114 -123 170 -123 30 0 55 9 55 20 0 11 -12 20 -27 20
-14 0 -47 45 -73 100 -26 55 -53 100 -61 100 -58 0 -239 154 -239 204 0 75 59
193 105 208 20 6 46 33 56 60 10 26 31 48 46 48 16 0 34 14 41 31 6 17 21 26
33 18 14 -8 19 22 15 93 -3 57 -16 108 -28 112 -13 4 -18 -15 -13 -51 5 -32
-2 -65 -14 -73 -35 -21 -121 7 -121 39 0 15 -15 58 -33 94 -61 121 -67 136
-67 164 0 16 23 43 51 62 27 18 45 41 38 52 -16 27 -64 24 -82 -6z"/>
<path d="M5151 4422 c30 -28 109 -47 109 -25 0 21 -48 43 -96 43 -19 0 -25 -7
-13 -18z"/>
<path d="M6287 4385 c7 -12 2 -25 -12 -30 -20 -7 -20 -15 1 -40 14 -17 22 -52
18 -78 -5 -26 -4 -36 0 -22 5 14 20 25 33 25 14 0 24 17 24 39 0 21 -7 34 -15
28 -9 -5 -16 9 -16 31 0 22 -10 46 -23 54 -14 8 -18 5 -10 -7z"/>
<path d="M6120 4298 c0 -21 -9 -38 -20 -38 -11 0 -20 10 -20 21 0 12 -9 16
-20 9 -33 -20 -24 -130 10 -130 17 0 30 9 30 20 0 52 255 -117 298 -196 13
-24 34 -44 48 -44 15 0 13 8 -6 20 -16 11 -23 20 -14 20 27 0 -153 172 -216
206 -33 18 -49 33 -35 33 43 2 29 95 -15 107 -30 8 -40 0 -40 -28z"/>
<path d="M6112 4133 c18 -48 -10 -80 -44 -52 -23 20 -28 14 -28 -27 0 -79 35
-83 80 -10 42 69 43 98 4 111 -15 5 -19 -4 -12 -22z"/>
<path d="M3646 4030 c0 -66 4 -91 8 -55 5 36 5 90 0 120 -4 30 -8 1 -8 -65z"/>
<path d="M5914 3906 c-7 -12 6 -46 30 -77 40 -51 45 -52 58 -17 22 55 21 83
-2 48 -16 -25 -19 -24 -20 6 0 20 -8 31 -18 25 -10 -6 -22 0 -27 13 -5 17 -12
17 -21 2z"/>
<path d="M2692 3845 c-28 -27 -3 -45 183 -125 107 -46 316 -138 463 -203 185
-83 274 -113 289 -98 26 26 57 10 -357 191 -198 86 -406 177 -463 202 -56 25
-108 40 -115 33z"/>
<path d="M6133 3770 c6 -16 18 -30 26 -30 58 0 297 -377 269 -423 -6 -10 6
-17 26 -17 30 -1 31 -4 6 -20 -19 -12 -21 -20 -6 -20 14 0 34 17 45 39 26 49
26 61 0 61 -12 0 -16 -9 -9 -20 7 -11 5 -20 -4 -19 -9 0 -43 61 -76 135 -65
146 -326 442 -277 314z"/>
<path d="M6040 3685 c1 -8 18 -37 40 -65 41 -53 54 -24 19 41 -20 38 -59 54
-59 24z"/>
<path d="M6157 3490 c-16 -15 26 -130 47 -130 25 0 19 69 -10 107 -14 20 -31
30 -37 23z"/>
<path d="M2621 3228 c-100 -95 -181 -182 -181 -193 0 -49 318 -345 343 -320
37 37 38 85 1 85 -25 0 -21 13 21 54 30 30 60 48 67 41 7 -7 -1 -27 -19 -45
-48 -47 -20 -103 29 -58 20 18 32 41 26 51 -6 10 -4 17 6 15 41 -7 49 5 23 37
-24 31 -23 32 4 11 26 -20 45 -10 115 57 l84 81 -51 61 c-155 185 -257 295
-271 295 -9 0 -97 -78 -197 -172z m287 -73 c27 -36 59 -92 71 -125 18 -52 18
-55 -6 -25 -37 48 -66 44 -104 -14 l-32 -49 -93 52 c-127 70 -178 106 -150
106 13 0 29 -9 36 -20 16 -25 70 -26 70 -1 0 10 -16 23 -35 28 -23 7 -18 10
15 9 122 -2 153 5 153 34 0 36 -17 38 -47 8 -24 -24 -66 -8 -66 24 0 11 9 15
20 8 11 -7 36 -3 55 8 52 31 58 28 113 -43z m32 -173 c0 -35 -54 -74 -74 -54
-12 11 40 92 59 92 8 0 15 -17 15 -38z m-176 -46 c-35 -35 -29 -65 6 -36 46
38 56 12 11 -29 -55 -50 -115 -1 -66 54 17 19 41 35 52 35 13 0 12 -9 -3 -24z"/>
<path d="M6227 3231 c7 -19 13 -47 13 -63 0 -15 10 -28 21 -28 32 0 14 105
-19 116 -20 7 -24 -1 -15 -25z"/>
<path d="M6360 3167 c-48 -51 -56 -66 -26 -50 24 13 56 40 70 60 14 20 40 42
56 48 26 10 26 12 -1 13 -16 1 -61 -31 -99 -71z"/>
<path d="M4189 3005 c-32 -326 -24 -535 20 -535 37 0 39 13 35 170 -2 94 3
202 12 240 l17 70 26 -80 c52 -158 139 -330 167 -330 29 0 93 587 67 613 -43
44 -70 -22 -83 -201 -17 -219 -30 -224 -91 -37 -98 298 -148 325 -170 90z"/>
<path d="M4658 3125 c0 -8 -3 -109 -5 -225 -3 -239 -46 -365 -128 -376 -53 -8
-57 -29 -14 -65 131 -109 329 507 209 651 -27 32 -59 40 -62 15z"/>
<path d="M4781 3125 c1 -27 53 -85 77 -85 15 0 11 17 -10 50 -31 48 -69 67
-67 35z"/>
<path d="M5380 3089 c-11 -28 -25 -73 -32 -100 -20 -80 -41 -74 -77 21 -24 63
-46 90 -73 90 -50 0 -48 -12 19 -160 l56 -124 -47 -132 c-52 -143 -53 -210 -4
-220 24 -4 36 15 46 70 7 42 57 188 111 326 54 137 93 256 88 265 -20 32 -69
13 -87 -36z"/>
<path d="M3941 3058 c-133 -47 -156 -66 -122 -106 16 -21 20 -58 11 -113 -36
-214 21 -299 201 -299 75 0 89 6 89 40 0 33 -10 37 -59 27 -120 -24 -164 4
-157 99 5 73 13 85 56 90 150 16 191 73 43 60 -69 -6 -73 -2 -79 57 -7 67 -3
70 131 97 75 15 102 47 63 72 -37 23 -50 22 -177 -24z"/>
<path d="M3049 2899 l-138 -139 103 0 c82 0 105 -7 112 -35 6 -27 7 -25 6 5
-1 28 -18 42 -56 46 -69 8 -58 46 51 159 137 143 69 112 -78 -36z"/>
<path d="M4873 2959 c-140 -166 -28 -414 143 -318 151 84 151 264 2 340 -95
49 -85 50 -145 -22z m167 -89 c40 -104 -75 -239 -134 -158 -38 52 -26 158 18
158 19 0 46 12 59 25 33 33 35 33 57 -25z"/>
<path d="M6280 2960 c0 -33 9 -60 20 -60 11 0 20 27 20 60 0 33 -9 60 -20 60
-11 0 -20 -27 -20 -60z"/>
<path d="M7670 3006 c-57 -13 -90 -64 -90 -139 0 -57 -11 -71 -92 -111 -86
-43 -178 -193 -141 -229 5 -5 19 22 32 60 20 60 38 76 122 103 114 38 116 41
135 155 12 67 24 86 59 91 29 4 45 21 45 45 0 22 -7 38 -15 37 -8 -2 -33 -7
-55 -12z"/>
<path d="M5645 2887 c-48 -20 -25 -40 35 -31 33 5 60 17 60 26 0 19 -53 22
-95 5z"/>
<path d="M6300 2732 c0 -38 9 -72 19 -75 11 -4 13 -18 4 -32 -13 -21 -53 -17
-193 16 -188 45 -230 35 -230 -56 0 -15 -22 -65 -48 -111 -27 -46 -81 -179
-120 -295 -98 -292 -172 -484 -197 -514 -15 -19 -13 -23 7 -16 53 20 81 -17
59 -75 -12 -33 -13 -71 -2 -99 10 -25 19 -34 20 -20 1 17 13 19 46 5 63 -27
355 -100 398 -100 22 0 41 20 48 49 7 26 24 53 39 58 23 9 86 127 131 243 8
22 34 83 57 135 23 52 42 108 42 125 0 17 8 46 18 65 82 154 99 234 54 251
-24 10 -23 25 4 102 22 60 39 82 50 66 11 -15 12 -8 4 16 -8 22 -15 50 -16 63
0 13 -40 29 -87 36 l-87 13 40 78 c46 90 48 100 19 100 -12 0 -17 -7 -11 -16
5 -9 1 -29 -9 -45 -13 -21 -18 -11 -19 36 0 36 -9 65 -20 65 -11 0 -20 -31
-20 -68z m27 -173 c80 -23 83 -35 39 -152 -12 -33 -9 -34 20 -10 30 25 34 22
34 -25 0 -65 14 -67 -266 26 -278 91 -259 79 -229 158 28 75 54 83 57 19 1
-42 2 -41 21 8 l19 53 114 -28 c63 -16 149 -38 191 -49z m-329 -295 c1 18 10
39 20 45 30 19 85 -12 74 -42 -6 -15 -2 -27 9 -27 10 0 19 9 19 20 0 11 9 20
20 20 30 0 24 -52 -10 -80 -24 -20 -30 -20 -30 3 0 15 -18 -3 -40 -39 -22 -36
-54 -70 -70 -77 -16 -6 -26 -17 -22 -24 4 -7 -19 -38 -50 -69 -32 -31 -58 -47
-58 -35 0 12 13 27 30 34 16 6 25 19 19 29 -6 10 -2 18 10 18 11 0 21 14 21
30 0 17 10 30 21 30 30 0 80 52 65 68 -7 6 -4 12 6 12 11 0 21 29 23 65 3 59
1 61 -16 19 -15 -37 -28 -44 -64 -33 -61 19 -62 19 -32 72 l25 47 14 -60 c7
-33 14 -45 16 -26z m362 -64 c20 -13 22 -19 5 -20 -14 0 -25 -13 -25 -30 0
-16 -10 -30 -22 -30 -12 0 -17 13 -11 29 6 17 3 35 -6 41 -10 6 -21 -7 -25
-29 -4 -27 -14 -35 -32 -24 -14 9 -20 31 -13 50 15 36 82 43 129 13z m-281
-275 c95 -77 25 -265 -98 -265 -89 0 -141 52 -141 140 0 132 140 205 239 125z
m-139 -406 c155 -53 144 -46 128 -86 -14 -38 -88 -45 -88 -8 -1 17 -7 15 -20
-5 -13 -19 -26 -23 -35 -10 -8 11 -24 20 -35 20 -92 2 -229 61 -219 94 7 20 2
36 -10 36 -11 0 -21 13 -21 29 0 32 16 28 300 -70z"/>
<path d="M5969 1918 c-8 -12 -2 -30 13 -39 45 -28 41 -102 -5 -88 -27 9 -34 4
-25 -20 7 -17 29 -31 50 -31 21 0 38 -10 38 -21 0 -12 9 -16 19 -10 11 7 14
26 8 42 -6 16 0 43 13 59 14 17 16 30 6 30 -11 0 -31 23 -46 50 -29 54 -50 62
-71 28z"/>
<path d="M5883 1886 c-46 -86 -17 -186 53 -186 20 0 17 16 -14 67 -29 47 -35
72 -19 88 12 12 17 34 13 48 -6 18 -17 13 -33 -17z"/>
<path d="M2654 2720 c37 -43 45 -79 50 -230 l6 -180 90 -7 c50 -3 137 0 195 7
l105 13 0 196 0 196 -100 13 c-90 12 -109 7 -171 -40 l-71 -54 -74 68 c-40 37
-54 45 -30 18z m361 -280 c4 -45 2 -46 -14 -10 -20 43 -29 16 -21 -60 3 -35
-3 -33 -57 17 -33 32 -69 51 -81 44 -13 -8 -22 4 -22 29 0 70 188 51 195 -20z"/>
<path d="M5494 2605 c-28 -7 -19 -20 45 -67 90 -65 115 -69 168 -29 44 34 28
71 -25 57 -20 -5 -63 3 -95 19 -31 15 -73 24 -93 20z"/>
<path d="M3120 2380 l0 -100 -208 0 -209 0 -20 55 c-11 31 -21 41 -21 22 -5
-91 11 -97 250 -97 l228 0 0 110 c0 61 -4 110 -10 110 -5 0 -10 -45 -10 -100z"/>
<path d="M5440 2467 c0 -7 14 -23 31 -35 43 -32 49 -92 15 -159 -37 -72 -21
-88 32 -35 23 23 52 40 64 37 13 -3 39 22 58 55 44 76 20 136 -47 119 -24 -6
-69 -2 -99 9 -30 12 -54 15 -54 9z"/>
<path d="M3820 2444 c-79 -12 -97 -44 -25 -44 l63 0 6 -145 c3 -80 15 -143 25
-140 11 3 17 42 14 86 -10 137 13 199 79 212 150 30 12 57 -162 31z"/>
<path d="M4913 2427 c-21 -22 -15 -327 7 -327 11 0 20 27 20 60 0 75 13 75 90
0 l61 -59 64 39 c90 55 91 106 2 58 -39 -21 -41 -17 -34 104 5 87 -1 127 -18
133 -18 6 -25 -27 -25 -123 0 -140 -12 -156 -70 -92 -34 37 -34 42 -3 77 69
76 -21 202 -94 130z"/>
<path d="M4096 2357 c-7 -78 -56 -103 -56 -30 0 79 -37 82 -49 4 -6 -39 -16
-102 -22 -141 -8 -53 -4 -70 19 -70 17 0 32 22 36 53 10 91 56 81 56 -11 0
-144 33 -88 52 88 15 130 13 170 -5 170 -14 0 -27 -29 -31 -63z"/>
<path d="M4220 2388 c-48 -21 -61 -35 -43 -46 16 -10 21 -35 12 -69 -26 -105
3 -153 91 -153 44 0 80 9 80 20 0 11 -28 20 -61 20 -80 0 -79 81 1 100 35 8
42 16 24 28 -14 8 -39 11 -55 4 -18 -6 -29 1 -29 20 0 16 27 39 60 51 33 12
60 29 60 39 0 27 -60 21 -140 -14z"/>
<path d="M5250 2272 c0 -182 8 -192 87 -102 78 88 79 118 5 192 -84 83 -92 75
-92 -90z m90 -2 c0 -26 -9 -53 -20 -60 -12 -7 -20 17 -20 60 0 43 8 67 20 60
11 -7 20 -34 20 -60z"/>
<path d="M4440 2365 c1 -204 59 -318 92 -180 l16 65 11 -70 c16 -99 68 -93 82
10 7 44 19 109 27 145 10 42 8 65 -6 65 -12 0 -27 -25 -33 -55 -23 -104 -35
-118 -47 -56 -14 69 -47 73 -63 7 -12 -53 -39 -8 -39 66 0 21 -9 38 -20 38
-11 0 -20 -16 -20 -35z"/>
<path d="M4731 2336 c-56 -81 -28 -176 52 -176 81 0 119 118 57 180 -51 51
-70 50 -109 -4z m96 -92 c-30 -47 -76 -43 -83 9 -4 29 6 46 30 52 52 12 80
-19 53 -61z"/>
<path d="M7146 2296 c-54 -68 -44 -125 35 -214 44 -48 79 -77 79 -64 0 30 -44
106 -76 132 -22 18 -22 32 -2 76 28 62 0 116 -36 70z"/>
<path d="M2928 2140 c6 -27 12 -57 12 -65 0 -8 9 -15 20 -15 30 0 24 47 -11
91 -31 38 -32 37 -21 -11z"/>
<path d="M3060 2165 c0 -21 64 -76 123 -105 37 -18 35 -12 -13 29 -99 86 -110
93 -110 76z"/>
<path d="M2508 2085 c-6 -19 -24 -59 -40 -88 -15 -29 -28 -72 -28 -96 0 -23
-13 -62 -29 -87 -59 -92 44 -329 164 -376 51 -19 67 -259 23 -342 -13 -23 -23
-86 -23 -139 0 -54 -8 -102 -17 -108 -10 -6 -18 -42 -18 -79 0 -37 -9 -73 -20
-80 -60 -37 -22 -288 55 -359 125 -116 142 -99 80 83 -19 54 -17 71 13 103 28
31 32 58 21 131 -11 74 -7 94 19 104 17 7 32 25 32 40 0 16 20 28 45 28 75 1
105 33 105 114 0 71 4 76 55 70 43 -4 60 5 74 44 10 27 35 58 55 69 25 14 36
44 36 97 1 75 2 76 77 76 91 0 145 75 125 173 -10 54 -8 57 43 44 55 -13 55
-13 17 30 -21 24 -35 46 -30 49 4 3 32 21 62 40 74 46 54 84 -64 122 -176 58
-245 28 -152 -65 37 -37 52 -43 52 -22 0 17 -11 42 -25 57 -20 20 -15 20 30 0
46 -21 54 -35 48 -86 -10 -84 -47 -172 -73 -172 -11 0 -20 -14 -20 -31 0 -22
-13 -17 -47 20 -64 69 -85 65 -34 -7 51 -72 51 -82 0 -72 -22 4 -35 0 -30 -9
6 -9 -12 -22 -40 -29 -28 -8 -45 -22 -38 -34 7 -12 -6 -34 -29 -51 -23 -16
-42 -42 -42 -57 0 -15 -10 -34 -23 -42 -16 -9 -18 -5 -7 14 9 15 -2 10 -24
-12 -23 -22 -36 -48 -30 -58 6 -11 -5 -13 -26 -5 -31 12 -32 10 -8 -20 21 -26
22 -31 2 -19 -17 10 -37 2 -53 -20 -27 -37 -30 -9 -35 307 -1 35 -9 59 -18 54
-10 -6 -13 2 -6 18 6 16 1 35 -11 42 -12 8 -17 22 -11 31 6 10 -7 28 -30 40
-23 12 -35 32 -27 44 7 13 4 17 -8 9 -32 -20 -71 41 -60 97 5 27 2 50 -7 50
-9 0 -14 34 -10 75 4 42 17 73 29 70 13 -3 23 4 23 15 0 11 -11 20 -24 20 -15
0 -10 14 12 35 25 23 40 27 45 12 5 -13 34 -19 66 -14 34 5 68 -3 86 -21 17
-17 36 -25 43 -18 6 7 12 2 12 -10 0 -13 14 -17 33 -10 23 9 29 5 19 -11 -17
-28 12 -31 39 -4 12 12 30 12 49 0 25 -15 23 -18 -10 -19 -26 0 -9 -16 50 -47
100 -51 151 -47 80 7 -34 25 -39 37 -18 44 22 7 20 19 -8 63 -20 30 -44 49
-55 42 -10 -6 -30 -4 -44 4 -14 9 -38 18 -55 20 -16 3 -51 29 -76 58 -38 44
-57 51 -112 41 -47 -9 -74 -4 -92 18 -34 41 -119 38 -132 -5z"/>
<path d="M5366 2045 c-41 -41 -82 -73 -90 -70 -9 3 -16 -8 -16 -25 0 -17 -8
-28 -18 -25 -10 3 -44 -28 -77 -69 -33 -41 -67 -68 -76 -60 -8 8 -9 3 -1 -11
7 -13 4 -43 -8 -66 -17 -32 -16 -49 4 -74 15 -19 16 -27 3 -19 -16 10 -23 -13
-22 -77 1 -50 -9 -101 -22 -114 -13 -13 -23 -39 -23 -58 0 -31 -68 -71 -105
-61 -8 2 -15 -6 -15 -17 0 -12 -9 -16 -20 -9 -11 7 -20 2 -20 -11 0 -14 14
-18 35 -9 101 41 157 49 110 16 -25 -17 -45 -48 -45 -68 0 -31 -15 -38 -80
-38 -73 0 -80 5 -80 51 0 43 -7 49 -40 39 -31 -10 -37 -5 -28 19 7 17 2 44
-11 59 -26 32 4 64 39 42 11 -7 20 -3 20 9 0 12 -27 27 -59 34 -64 13 -41 67
29 67 27 0 28 5 6 26 -14 15 -26 68 -26 119 1 50 -5 88 -12 84 -7 -5 -24 34
-38 86 -14 52 -35 104 -46 115 -13 13 -14 10 -4 -10 9 -16 -5 -11 -32 13 -97
86 -164 105 -365 105 -191 0 -232 -16 -152 -59 28 -15 49 -15 66 -2 13 12 42
18 64 15 21 -3 59 3 83 14 89 40 282 -105 258 -193 -5 -22 12 -80 39 -131 62
-117 62 -130 -12 -196 -58 -52 -59 -55 -20 -70 23 -8 41 -29 41 -46 0 -17 8
-46 18 -65 10 -19 30 -75 44 -125 15 -49 36 -97 47 -105 13 -9 12 -14 -5 -15
-15 0 -21 -8 -15 -18 18 -30 236 -2 305 38 36 21 70 30 76 20 6 -10 24 -14 41
-9 16 5 43 13 60 19 17 5 26 18 20 29 -8 13 -31 12 -64 0 -79 -30 -122 13 -69
69 23 25 39 68 38 105 -1 44 16 82 61 130 62 67 84 162 43 187 -46 28 -20 106
50 147 51 30 70 56 70 92 0 28 8 51 17 51 30 0 96 68 131 135 47 93 -4 88
-102 -10z"/>
<path d="M6640 2064 c0 -20 12 -52 26 -72 23 -32 25 -27 18 36 -9 73 -44 102
-44 36z"/>
<path d="M7024 2016 c-13 -13 -24 -34 -24 -47 0 -35 -64 -85 -120 -92 l-50 -7
54 -55 c68 -69 131 -71 155 -7 10 26 26 51 36 55 20 8 8 177 -13 177 -8 0 -25
-11 -38 -24z"/>
<path d="M3274 2008 c-15 -16 22 -54 86 -87 47 -25 47 -23 -9 36 -66 71 -60
67 -77 51z"/>
<path d="M6560 1956 c0 -75 192 -256 239 -227 31 20 -57 171 -100 171 -20 0
-42 9 -49 20 -23 37 -90 64 -90 36z"/>
<path d="M7175 1869 c-51 -28 -72 -94 -56 -177 1 -10 -31 -12 -73 -4 -194 33
-246 37 -246 17 0 -22 83 -41 258 -58 93 -10 106 -7 96 21 -7 18 -4 32 7 32
30 0 57 86 36 113 -12 15 -4 26 23 33 22 5 40 20 40 32 0 29 -18 27 -85 -9z"/>
<path d="M7275 1835 c-13 -82 -5 -95 57 -95 48 0 49 2 19 44 -17 25 -31 61
-31 80 0 62 -35 39 -45 -29z"/>
<path d="M7360 1840 c0 -11 9 -20 20 -20 11 0 20 -18 20 -40 0 -27 13 -40 40
-40 51 0 51 21 -1 76 -43 47 -79 57 -79 24z"/>
<path d="M3600 1760 c43 -38 69 -48 105 -42 8 1 15 -7 15 -18 0 -11 18 -20 40
-20 22 0 40 -8 40 -19 0 -21 78 -50 94 -34 5 6 -47 39 -117 74 -70 35 -130 72
-134 81 -3 10 -25 18 -48 18 -40 0 -40 -1 5 -40z"/>
<path d="M7509 1779 c-7 -12 3 -39 22 -60 45 -50 4 -70 -107 -52 -78 12 -147
-11 -106 -36 12 -7 31 -8 43 0 11 7 34 2 50 -12 17 -14 54 -19 94 -11 36 7
116 16 179 21 63 4 126 18 140 30 14 12 43 34 64 49 26 17 34 38 25 62 -13 34
-17 33 -54 -7 -53 -56 -160 -58 -209 -3 -39 43 -119 54 -141 19z"/>
<path d="M5406 1518 c-13 -33 -41 -66 -62 -71 -38 -10 -43 -36 -47 -223 -3
-123 89 -58 121 85 16 72 35 111 54 111 33 0 19 92 -20 135 -18 19 -28 11 -46
-37z"/>
<path d="M7360 1532 c0 -18 -16 -32 -37 -32 -21 0 -77 -35 -125 -77 -48 -42
-115 -90 -148 -105 -56 -27 -60 -35 -54 -128 15 -232 81 -284 211 -170 104 92
332 66 387 -44 52 -103 96 -125 175 -88 71 34 122 98 102 130 -6 10 8 41 31
70 49 63 35 95 -110 248 -45 47 -102 119 -127 160 l-45 74 0 -75 c0 -84 1 -83
-67 -53 -32 15 -45 34 -39 58 8 28 0 33 -42 25 -29 -5 -66 1 -82 15 -25 20
-30 19 -30 -8z m167 -194 c47 7 61 0 34 -17 -21 -13 -10 -20 40 -24 54 -6 70
-17 75 -52 4 -25 15 -41 24 -35 10 6 28 -8 41 -32 18 -33 17 -47 -1 -58 -13
-8 -23 -20 -22 -27 7 -52 -4 -55 -29 -8 -17 30 -35 55 -41 55 -6 0 -5 -9 2
-20 19 -31 -9 -24 -67 18 -53 37 -64 42 -104 42 -12 0 -17 8 -11 17 6 9 -2 16
-18 16 -16 0 -24 -6 -19 -14 5 -9 -9 -11 -31 -5 -22 6 -40 20 -40 32 0 15 -8
14 -24 -2 -13 -13 -44 -24 -68 -24 -25 0 -48 -9 -51 -19 -4 -11 -19 -13 -34
-3 -26 16 48 122 86 122 7 0 28 14 46 32 17 17 52 28 77 23 25 -5 57 -2 71 7
14 9 32 7 39 -5 7 -11 18 -20 25 -19z"/>
<path d="M4140 1519 c0 -16 29 -26 45 -16 3 2 23 -6 45 -17 58 -30 190 -51
190 -30 0 9 -11 18 -25 19 -14 2 -61 12 -105 24 -136 37 -150 39 -150 20z"/>
<path d="M3493 1406 c-6 -6 10 -28 36 -49 52 -41 71 -46 71 -19 0 24 -92 83
-107 68z"/>
<path d="M5565 1334 c-25 -11 -45 -33 -45 -48 0 -21 9 -23 39 -7 77 41 82 90
6 55z"/>
<path d="M3680 1265 c0 -25 97 -75 114 -58 7 8 5 22 -5 31 -29 27 -109 47
-109 27z"/>
<path d="M3891 1161 c-14 -22 101 -68 128 -52 11 7 21 23 21 36 0 12 -5 16
-12 10 -6 -6 -37 -4 -69 5 -32 10 -63 10 -68 1z"/>
<path d="M4120 1084 c0 -22 99 -52 116 -35 16 16 1 26 -61 42 -33 8 -55 5 -55
-7z"/>
<path d="M8440 914 c0 -20 -13 -40 -30 -47 -16 -6 -30 -28 -30 -48 0 -20 -36
-67 -80 -104 -71 -61 -79 -76 -68 -132 16 -76 43 -82 60 -13 7 28 38 71 68 97
92 77 151 210 112 250 -29 29 -32 29 -32 -3z"/>
<path d="M7720 800 c-23 -42 -11 -120 19 -120 13 0 32 59 42 135 5 34 -40 24
-61 -15z"/>
</g>
</svg>
